<svg display="none">
        <symbol id="facebook" viewBox="0 0 2048 2048" xmlns="http://www.w3.org/2000/svg">
            <g id="Layer_x0020_1"><path d="M680.532 762.667l180.266 0 0 -229.334c0,-0.700394 0.0448819,-1.39016 0.132284,-2.06693 3.71457,-70.48 17.9599,-134.177 50.7945,-180.936 34.0571,-48.502 87.0095,-78.3319 167.06,-78.3319l288.683 0c8.83583,0 16.0004,7.16457 16.0004,16.0004l0 231.157c0,8.83583 -7.16457,16.0004 -16.0004,16.0004l-113.958 0c-29.3941,0 -51.4489,4.50237 -65.7556,16.3169l-10.187 -12.3118 10.187 12.3378c-0.309449,0.255118 -0.625985,0.494882 -0.947245,0.724016 -13.2614,11.5039 -20.7366,30.8386 -22.3618,60.7382l0.022441 0 0 149.705 203 0c8.83583,0 16.0004,7.16457 16.0004,16.0004l0 245.333c0,8.83583 -7.16457,16.0004 -16.0004,16.0004l-203 0 0 720.001c0,8.83583 -7.16457,16.0004 -16.0004,16.0004l-271.669 0c-8.83583,0 -16.0004,-7.16457 -16.0004,-16.0004l0 -720.001 -180.266 0c-8.83583,0 -16.0004,-7.16457 -16.0004,-16.0004l0 -245.333c0,-8.83583 7.16457,-16.0004 16.0004,-16.0004z"/></g>
        </symbol>
        <symbol id="instagramm" viewBox="0 0 32 32" xmlns="http://www.w3.org/2000/svg">
            <g>
                <path d="M 8 5 C 6.355469 5 5 6.355469 5 8 L 5 24 C 5 25.644531 6.355469 27 8 27 L 24 27 C 25.644531 27 27 25.644531 27 24 L 27 8 C 27 6.355469 25.644531 5 24 5 Z M 21 8 L 24 8 L 24 11 L 21 11 Z M 16 12 C 18.222656 12 20 13.777344 20 16 C 20 18.222656 18.222656 20 16 20 C 13.777344 20 12 18.222656 12 16 C 12 13.777344 13.777344 12 16 12 Z M 7 14 L 10.34375 14 C 10.121094 14.625 10 15.300781 10 16 C 10 19.300781 12.699219 22 16 22 C 19.300781 22 22 19.300781 22 16 C 22 15.300781 21.878906 14.625 21.65625 14 L 25 14 L 25 24 C 25 24.566406 24.566406 25 24 25 L 8 25 C 7.433594 25 7 24.566406 7 24 Z"/>
            </g>
        </symbol>
        <symbol id="pinterest" viewBox="0 0 2048 2048" xmlns="http://www.w3.org/2000/svg">
            <g id="Layer_x0020_1"><path d="M1423.12 388.588c96.8717,71.7107 164.308,175.034 182.364,306.493l0.00826772 -0.0011811c7.30512,52.8296 8.79804,106.27 4.80945,158.7 -9.54213,125.402 -50.3859,245.603 -117.997,338.595 -68.3268,93.9768 -163.888,160.285 -282.135,176.639 -29.2524,4.0441 -59.7922,5.02914 -91.5367,2.61378l-0.0625985 0c-71.1485,-5.68347 -110.747,-33.1205 -157.11,-65.243 -8.99056,-6.22796 -18.2492,-12.6425 -27.9236,-19.0169 -18.3791,94.1257 -39.2965,185.873 -71.2229,267.033 -35.1236,89.2867 -83.4957,165.724 -156.139,218.537l-21.4748 15.613 -3.71221 -26.3634c-32.1874,-228.652 17.5252,-414.317 65.8347,-594.743 16.6843,-62.3103 33.1996,-123.995 45.8351,-185.373 -28.5603,-51.6709 -36.0744,-119.162 -26.2984,-182.958 6.92599,-45.1937 22.5331,-88.8095 45.4772,-123.869 23.6563,-36.1477 55.2343,-63.4099 93.4335,-74.5737 29.5547,-8.63741 62.5725,-7.53898 98.3245,6.62245l0 0.0625985c118.545,46.9949 77.1709,176.847 35.8158,306.633 -12.9969,40.7882 -25.9937,81.5705 -33.5859,119.568 -15.2268,76.1989 -6.49016,138.398 79.4091,155.563l0 0.0625985c48.0638,9.73111 90.932,0.669686 127.893,-21.6532 50.8689,-30.7205 91.1339,-86.5536 118.931,-153.547 28.2673,-68.1296 43.4977,-147.391 43.878,-223.643 0.501969,-100.584 -24.6768,-195.432 -79.7091,-251.281 -61.9016,-62.7839 -138.099,-94.18 -216.471,-100.289 -75.6438,-5.89607 -153.351,11.6327 -222.375,47.165 -69.1323,35.5878 -129.463,89.132 -170.229,155.197 -43.9878,71.2879 -65.2028,157.31 -50.0268,251.195 4.56851,28.3323 18.1937,50.8028 31.2803,72.3827 28.9512,47.7426 55.6359,91.7493 4.5567,182.264l-5.80748 10.291 -11.5039 -2.54173c-80.3646,-17.7626 -134.896,-56.7213 -169.779,-111.647 -34.3158,-54.0319 -49.0193,-123.089 -50.2878,-202.237l0 -0.375591c1.72205,-149.466 55.4835,-281.707 145.856,-380.875 90.8198,-99.658 218.504,-165.853 367.396,-182.506 14.5831,-1.63937 29.263,-2.87953 44.0162,-3.72756 14.4036,-0.826772 29.0646,-1.25433 43.9489,-1.28858 145.898,-0.328347 282.874,39.9485 386.32,116.523z"/></g>
        </symbol>
        <symbol id='chevron-up' viewBox="0 0 512 512" xmlns="http://www.w3.org/2000/svg">
            <path d="M8 256C8 119 119 8 256 8s248 111 248 248-111 248-248 248S8 393 8 256zm231-113.9L103.5 277.6c-9.4 9.4-9.4 24.6 0 33.9l17 17c9.4 9.4 24.6 9.4 33.9 0L256 226.9l101.6 101.6c9.4 9.4 24.6 9.4 33.9 0l17-17c9.4-9.4 9.4-24.6 0-33.9L273 142.1c-9.4-9.4-24.6-9.4-34 0z"></path>
        </symbol>
    </svg>